<?xml version="1.0" standalone="no"?>
<!DOCTYPE svg PUBLIC "-//W3C//DTD SVG 20010904//EN"
 "http://www.w3.org/TR/2001/REC-SVG-20010904/DTD/svg10.dtd">
<svg version="1.0" xmlns="http://www.w3.org/2000/svg"
 width="96.000000pt" height="96.000000pt" viewBox="0 0 96.000000 96.000000"
 preserveAspectRatio="xMidYMid meet">
<metadata>
Created by potrace 1.16, written by Peter Selinger 2001-2019
</metadata>
<g transform="translate(0.000000,96.000000) scale(0.100000,-0.100000)"
fill="#000000" stroke="none">
<path d="M0 480 l0 -480 480 0 480 0 0 480 0 480 -480 0 -480 0 0 -480z m786
428 c38 -21 91 -74 111 -112 8 -16 17 -57 19 -90 3 -44 1 -54 -5 -36 -5 14 -9
21 -10 17 -1 -4 -11 1 -23 12 -11 11 -24 18 -29 16 -4 -3 -25 12 -46 33 -21
22 -50 46 -64 55 -26 18 -122 40 -114 27 2 -4 21 -10 41 -13 53 -9 101 -46
127 -97 20 -42 22 -59 22 -225 0 -206 -7 -236 -65 -288 -54 -49 -117 -60 -305
-55 -159 5 -193 13 -239 56 -50 47 -59 83 -64 257 -4 150 -5 157 -19 125 -8
-19 -30 -45 -49 -57 l-34 -22 0 107 c0 59 4 123 10 142 13 47 66 111 86 103
12 -4 13 -8 3 -14 -7 -4 -16 -6 -20 -3 -4 2 -10 0 -14 -5 -3 -6 3 -8 15 -6 11
2 22 -1 26 -6 3 -5 2 -9 -3 -8 -17 3 -24 -1 -18 -11 4 -7 19 -3 40 10 44 27
55 10 21 -34 -14 -18 -28 -46 -31 -62 -6 -26 -4 -25 18 11 14 22 45 51 69 65
39 22 57 25 208 31 114 4 139 6 80 8 -47 1 -111 4 -143 6 -32 1 -74 -1 -93 -5
-19 -4 -34 -6 -34 -5 0 2 -3 12 -7 22 -6 16 -5 16 10 5 14 -12 15 -11 7 17 -5
19 -5 31 1 31 5 0 9 -8 10 -17 0 -15 2 -15 8 2 5 11 6 24 4 28 -3 5 100 7 228
5 196 -2 239 -6 265 -20z m-536 -69 c0 -6 -4 -8 -9 -5 -5 4 -11 1 -13 -6 -3
-7 -7 -5 -11 6 -4 10 -3 15 3 11 6 -3 10 -1 10 5 0 6 5 8 10 5 6 -3 10 -11 10
-16z m665 -589 c-4 -23 -9 -39 -11 -37 -3 2 -2 23 2 46 4 23 9 40 11 37 3 -3
2 -23 -2 -46z m-700 -90 c6 -1 20 -6 31 -10 12 -5 64 -11 115 -15 165 -11 229
-20 229 -35 0 -7 38 -23 52 -21 3 0 9 -6 12 -14 5 -13 -24 -15 -202 -15 -116
0 -224 5 -246 11 -35 10 -126 81 -126 99 0 10 20 8 38 -3 6 -5 12 -4 12 2 0 6
6 8 14 5 8 -3 17 -1 21 5 4 7 12 8 23 2 9 -5 22 -10 27 -11z"/>
<path d="M348 903 c6 -2 18 -2 25 0 6 3 1 5 -13 5 -14 0 -19 -2 -12 -5z"/>
<path d="M280 742 c-61 -30 -70 -63 -70 -255 0 -178 5 -201 50 -242 21 -19 36
-20 221 -20 l199 0 32 33 33 32 3 183 c4 279 -4 287 -268 287 -137 0 -171 -3
-200 -18z m357 -6 c3 -2 -7 -20 -22 -39 l-28 -34 -59 16 c-55 14 -62 14 -111
-3 -29 -10 -68 -30 -87 -45 -70 -55 -100 -51 -100 14 0 47 33 90 73 98 30 5
328 0 334 -7z m57 -48 c15 -24 -3 -52 -37 -56 -35 -4 -52 26 -31 57 18 26 51
25 68 -1z m-134 -43 c28 -15 62 -50 79 -82 16 -31 14 -119 -4 -152 -20 -40
-69 -79 -115 -91 -50 -14 -107 0 -150 36 -43 37 -60 75 -60 137 0 129 134 210
250 152z"/>
<path d="M428 584 c-30 -16 -58 -61 -58 -94 0 -53 57 -110 110 -110 53 0 110
57 110 110 0 34 -28 78 -60 95 -36 19 -67 19 -102 -1z"/>
<path d="M137 675 c-4 -8 -3 -16 1 -19 4 -3 9 4 9 15 2 23 -3 25 -10 4z"/>
</g>
</svg>
