<?xml version="1.0" standalone="no"?>
<!DOCTYPE svg PUBLIC "-//W3C//DTD SVG 20010904//EN"
 "http://www.w3.org/TR/2001/REC-SVG-20010904/DTD/svg10.dtd">
<svg version="1.0" xmlns="http://www.w3.org/2000/svg"
 width="96.000000pt" height="96.000000pt" viewBox="0 0 96.000000 96.000000"
 preserveAspectRatio="xMidYMid meet">
<metadata>
Created by potrace 1.16, written by Peter Selinger 2001-2019
</metadata>
<g transform="translate(0.000000,96.000000) scale(0.100000,-0.100000)"
fill="#000000" stroke="none">
<path d="M0 480 l0 -480 480 0 480 0 0 480 0 480 -480 0 -480 0 0 -480z m716
185 c4 -8 -1 -59 -10 -113 -8 -53 -18 -119 -21 -147 -13 -98 -35 -137 -68
-119 -66 37 -167 112 -167 124 0 8 34 47 77 87 43 39 75 74 71 78 -3 3 -50
-24 -105 -62 -87 -61 -103 -68 -144 -67 -47 0 -109 20 -109 34 0 14 26 27 210
104 102 43 194 81 205 86 31 13 55 11 61 -5z"/>
</g>
</svg>
